<?xml version="1.0" encoding="iso-8859-1"?>
<!-- Generator: Adobe Illustrator 24.0.1, SVG Export Plug-In . SVG Version: 6.00 Build 0)  -->
<svg version="1.1" id="&#x56FE;&#x5C42;_1" xmlns="http://www.w3.org/2000/svg" xmlns:xlink="http://www.w3.org/1999/xlink" x="0px"
	 y="0px" viewBox="0 0 1366 768" style="enable-background:new 0 0 1366 768;" xml:space="preserve">
<g>
	<circle style="fill:#940705;" cx="698.53" cy="395.654" r="287.654"/>
	<g>
		<path style="fill:#4b4d64;" d="M891.038,472.432c-3.795-11.721-13.143-20.959-24.081-25.489
			c-10.154-4.609-21.973-5.155-32.454-1.709c-0.936-3.469-2.69-6.594-5.11-9.322c-2.923-3.165-6.843-5.449-10.909-6.585
			c-4.073-1.066-8.507-1.384-12.677-0.167c-3.273,0.867-6.279,2.681-8.582,5.089c-1.813-4.271-4.317-8.163-7.589-11.582
			c-1.743-1.815-3.751-3.445-5.951-4.794c6.015-10.534,7.252-22.624,5.174-34.129c-2.11-12.118-9.101-23.194-18.522-30.86
			c-9.269-7.781-20.974-12.672-33.098-13.783c-11.347-0.725-22.62,1.056-32.612,7.653c-4.305-4.693-9.36-8.29-15.166-10.813
			c-6.464-2.896-13.866-3.914-20.906-2.919c-7.026,1.106-13.786,4.108-19.149,8.675c-4.399,3.696-8.007,8.042-10.782,13.043
			c-8.663-7.45-19.156-12.746-30.222-15.298c-12.923-3.168-26.931-2.711-39.5,2.04c-1.462-2.737-3.262-5.187-5.467-7.447
			c-2.782-2.869-6.372-5.184-10.439-6.367c-4.061-1.104-8.578-0.971-12.372,0.532c-2.021,0.519-3.632,1.749-5.433,2.602
			c-1.091,0.754-2.12,1.576-3.142,2.39c-4.82-6.074-10.839-10.992-17.989-14.34c-7.69-3.681-16.815-4.558-25.234-2.678
			c-8.472,2.031-16.147,7.398-20.991,14.389c-4.494,6.442-7.304,13.632-8.495,21.225c-9.465-2.293-19.216-2.705-28.913-1.014
			c-10.323,1.727-20.465,6.463-28.243,13.876c-7.864,7.462-12.932,17.455-15.223,27.762c-2.048,9.566-2.329,19.155-0.854,28.82
			c-0.838,0.265-1.671,0.554-2.495,0.875c-6.995,2.668-13.275,7.362-17.88,13.118c-9.179,11.491-14.051,25.477-15.23,39.814
			c-1.272,14.275,3.35,29.927,14.326,39.969c10.03,9.307,22.943,13.883,36.036,15.121c-3.112,7.437-4.653,15.397-4.052,23.652
			c0.533,9.322,5.1,18.551,12.033,24.887c6.907,6.207,15.567,10.405,24.689,11.786c8.425,1.169,16.892,0.281,24.709-2.816
			c1.836,10.766,7.264,20.524,14.801,28.381c8.157,8.307,18.756,13.915,29.736,17.007c10.932,3.076,22.557,4.714,34.003,3.154
			c10.694-1.299,21.052-4.746,30.033-11.14c4.302,5.011,9.899,8.965,16.145,11.23c6.925,2.575,14.536,3.282,21.872,1.884
			c7.323-1.53,13.993-5.148,19.45-10.062c4.651-4.292,8.409-9.3,10.984-15.087c2.428,2.039,5.125,3.525,8.083,4.672
			c3.937,1.442,8.193,1.976,12.41,1.569c4.232-0.436,8.526-2.005,11.982-4.837c2.256-1.809,4.059-4.07,5.461-6.514
			c0.883,0.893,1.843,1.717,2.886,2.449c3.521,2.461,7.495,3.965,11.592,4.717c8.187,1.537,17.088-0.66,23.68-5.732
			c6.656-4.817,11.37-12.294,13.146-20.175c1.017-4.331,1.301-8.732,1.01-13.07c4.42,4.558,9.719,8.266,15.554,10.914
			c9.174,4.421,20.106,5.354,30.097,2.757c4.954-1.487,9.695-3.344,13.997-6.507c4.208-3.159,7.655-7.158,10.295-11.516
			c4.564-7.925,6.868-16.631,7.242-25.458c3.344,2.432,7.031,4.312,11.181,5.371c5.13,1.516,11.07,1.055,16.188-1.267
			c5.12-2.316,9.149-6.637,11.604-11.542c1.709-3.747,2.763-7.778,2.619-11.92c4.477,0.721,8.961,0.652,13.426,0.11
			c11.917-1.28,23.808-8.384,29.602-19.41c2.768-5.451,4.508-11.289,5.237-17.155C893.207,484.543,893.125,478.221,891.038,472.432z
			"/>
		<linearGradient id="SVGID_1_" gradientUnits="userSpaceOnUse" x1="456.0324" y1="625.9112" x2="753.3195" y2="328.6241">
			<stop  offset="0.0261" style="stop-color:#f12550"/>
			<stop  offset="0.3787" style="stop-color:#b72013"/>
			<stop  offset="0.7437" style="stop-color:#f12770"/>
			<stop  offset="1" style="stop-color:#b72233"/>
		</linearGradient>
		<path style="fill:url(#SVGID_1_);" d="M891.038,472.432c-3.795-11.721-13.143-20.959-24.081-25.489
			c-10.154-4.609-21.973-5.155-32.454-1.709c-0.936-3.469-2.69-6.594-5.11-9.322c-2.923-3.165-6.843-5.449-10.909-6.585
			c-4.073-1.066-8.507-1.384-12.677-0.167c-3.273,0.867-6.279,2.681-8.582,5.089c-1.813-4.271-4.317-8.163-7.589-11.582
			c-1.743-1.815-3.751-3.445-5.951-4.794c6.015-10.534,7.252-22.624,5.174-34.129c-2.11-12.118-9.101-23.194-18.522-30.86
			c-9.269-7.781-20.974-12.672-33.098-13.783c-11.347-0.725-22.62,1.056-32.612,7.653c-4.305-4.693-9.36-8.29-15.166-10.813
			c-6.464-2.896-13.866-3.914-20.906-2.919c-7.026,1.106-13.786,4.108-19.149,8.675c-4.399,3.696-8.007,8.042-10.782,13.043
			c-8.663-7.45-19.156-12.746-30.222-15.298c-12.923-3.168-26.931-2.711-39.5,2.04c-1.462-2.737-3.262-5.187-5.467-7.447
			c-2.782-2.869-6.372-5.184-10.439-6.367c-4.061-1.104-8.578-0.971-12.372,0.532c-2.021,0.519-3.632,1.749-5.433,2.602
			c-1.091,0.754-2.12,1.576-3.142,2.39c-4.82-6.074-10.839-10.992-17.989-14.34c-7.69-3.681-16.815-4.558-25.234-2.678
			c-8.472,2.031-16.147,7.398-20.991,14.389c-4.494,6.442-7.304,13.632-8.495,21.225c-9.465-2.293-19.216-2.705-28.913-1.014
			c-10.323,1.727-20.465,6.463-28.243,13.876c-7.864,7.462-12.932,17.455-15.223,27.762c-2.048,9.566-2.329,19.155-0.854,28.82
			c-0.838,0.265-1.671,0.554-2.495,0.875c-6.995,2.668-13.275,7.362-17.88,13.118c-9.179,11.491-14.051,25.477-15.23,39.814
			c-1.272,14.275,3.35,29.927,14.326,39.969c10.03,9.307,22.943,13.883,36.036,15.121c-3.112,7.437-4.653,15.397-4.052,23.652
			c0.533,9.322,5.1,18.551,12.033,24.887c6.907,6.207,15.567,10.405,24.689,11.786c8.425,1.169,16.892,0.281,24.709-2.816
			c1.836,10.766,7.264,20.524,14.801,28.381c8.157,8.307,18.756,13.915,29.736,17.007c10.932,3.076,22.557,4.714,34.003,3.154
			c10.694-1.299,21.052-4.746,30.033-11.14c4.302,5.011,9.899,8.965,16.145,11.23c6.925,2.575,14.536,3.282,21.872,1.884
			c7.323-1.53,13.993-5.148,19.45-10.062c4.651-4.292,8.409-9.3,10.984-15.087c2.428,2.039,5.125,3.525,8.083,4.672
			c3.937,1.442,8.193,1.976,12.41,1.569c4.232-0.436,8.526-2.005,11.982-4.837c2.256-1.809,4.059-4.07,5.461-6.514
			c0.883,0.893,1.843,1.717,2.886,2.449c3.521,2.461,7.495,3.965,11.592,4.717c8.187,1.537,17.088-0.66,23.68-5.732
			c6.656-4.817,11.37-12.294,13.146-20.175c1.017-4.331,1.301-8.732,1.01-13.07c4.42,4.558,9.719,8.266,15.554,10.914
			c9.174,4.421,20.106,5.354,30.097,2.757c4.954-1.487,9.695-3.344,13.997-6.507c4.208-3.159,7.655-7.158,10.295-11.516
			c4.564-7.925,6.868-16.631,7.242-25.458c3.344,2.432,7.031,4.312,11.181,5.371c5.13,1.516,11.07,1.055,16.188-1.267
			c5.12-2.316,9.149-6.637,11.604-11.542c1.709-3.747,2.763-7.778,2.619-11.92c4.477,0.721,8.961,0.652,13.426,0.11
			c11.917-1.28,23.808-8.384,29.602-19.41c2.768-5.451,4.508-11.289,5.237-17.155C893.207,484.543,893.125,478.221,891.038,472.432z
			 M652.439,345.448c4.872-3.917,10.76-6.294,16.855-7.095c6.087-0.811,12.361,0.026,18,2.564
			c5.614,2.432,10.898,6.423,14.813,10.929l0.002,0.002c0.854,1.12,2.455,1.355,3.594,0.515l0.285-0.208
			c3.694-2.72,9.398-4.682,14.533-5.81c5.294-1.173,10.766-1.458,16.131-0.92c10.737,1.127,20.962,5.918,29.336,12.739
			c8.371,6.786,14.394,16.252,16.299,26.832c1.909,10.12,0.716,21.499-4.182,30.25c-1.052-0.355-2.128-0.645-3.225-0.858
			c-5.626-1.266-12.021-0.327-16.987,2.906c-4.292,2.771-7.405,6.596-9.559,11.009c-4.775-2.229-9.906-3.716-15.188-4.356
			c0.487-8.753-1.041-17.449-4.938-25.448c-4.087-8.625-11.319-15.83-19.883-20.132c-8.484-4.39-18.19-6.195-27.783-5.423
			c-8.371,0.744-16.365,3.581-23.164,8.746c-1.93-5.59-4.696-10.883-8.292-15.647c-2.159-2.959-4.563-5.725-7.17-8.28
			C644.549,353.094,648.219,348.744,652.439,345.448z M717.026,517.991l-0.009-0.004c-1.083-0.486-2.386-0.116-3.04,0.916
			l-0.096,0.149c-3.701,5.838-10.172,10.409-17.083,12.071c-6.98,1.852-14.701,0.765-21.696-1.335
			c-7.062-2.032-13.089-6.562-17.196-12.633c-3.925-6.12-6.322-13.631-6.829-20.942v-0.005c-0.034-1.073-0.865-2.003-1.961-2.105
			c-10.176-1.067-20.922-2.856-29.434-7.927c-8.65-5.142-15.66-13.04-18.573-22.548c-2.994-9.456-1.905-19.977,2.743-28.836
			c4.404-9.029,11.825-16.542,21.195-19.742c9.29-3.299,19.879-2.527,29.022,1.398c9.135,3.796,17.292,10.944,20.172,20.27
			c2.665,8.949,0.176,20.728-7.928,25.939c-4.027,2.556-9.206,3.297-14.168,2.59c-4.719-0.739-10.505-2.725-12.407-6.825
			l-0.09-0.198c-0.17-0.369-0.591-0.568-0.992-0.451c-0.443,0.129-0.698,0.594-0.57,1.037c0.919,3.154,3.456,4.831,5.781,6.272
			c2.428,1.374,5.053,2.35,7.78,2.927c5.396,1.191,11.476,0.813,16.578-2.16c5.169-2.881,8.62-8.145,10.291-13.503
			c1.866-5.382,1.958-11.44,0.417-17.004c-2.908-10.016-10.523-17.623-19.311-22.347c1.551-8.305,1.391-16.829-0.434-24.937
			c6.093-4.622,14.086-7.768,21.947-8.388c8.227-0.727,16.684,1.25,24.267,4.646c7.551,3.481,13.878,9.309,17.767,16.751
			c3.855,7.364,5.845,16.126,5.72,24.519v0.007c-0.114,1.111,0.682,2.114,1.795,2.248l0.17,0.021
			c12.439,1.498,24.653,8.178,32.094,18.378c7.304,10.242,11.562,23.36,9.693,35.778c-1.785,12.483-9.538,23.846-20.06,30.956
			C742.225,520.068,728.299,523.335,717.026,517.991z M606.991,345.244c14.762,3.563,28.12,12.317,36.903,24.586
			c8.577,11.385,11.576,26.577,9.273,40.324c-9.556-3.325-20.256-3.718-29.959-0.256c-10.86,3.729-19.378,12.526-24.173,22.479
			c-5.178,9.913-6.464,22.057-2.98,32.85c3.354,10.872,11.418,19.928,21.155,25.198c2.251,1.241,4.547,2.273,6.875,3.14
			c0.005,0.015,0.006,0.03,0.01,0.045l0.014,0.049c1.278,4.674,1.956,9.485,1.731,14.156c-0.286,4.635-1.321,9.231-3.824,12.725
			c-2.483,3.436-6.203,6.136-10.472,7.233c-4.22,1.175-9.185,1.119-13.571,0.152l-0.009-0.003c-0.391-0.15-0.828-0.189-1.269-0.092
			c-1.195,0.265-1.95,1.451-1.685,2.647l0.046,0.202c1.819,8.19,1.727,17.189-0.302,25.26c-2.07,8.067-6.599,15.411-13.803,19.219
			c-7.073,4.119-15.641,5.46-23.676,3.465c-8.046-1.823-15.77-6.496-21.903-12.253l-0.008-0.009l-0.06-0.063
			c-0.79-0.795-2.076-0.798-2.872-0.007c-8.566,8.4-23.229,9.721-33.917,4.48c-5.371-2.655-9.29-7.423-10.986-13.178
			c-1.693-5.711-1.466-12.262-0.016-18.073l0.004-0.011c0.069-0.221,0.102-0.466,0.088-0.711c-0.062-1.115-1.017-1.969-2.13-1.907
			l-0.068,0.004c-8.435,0.467-16.881-1.188-24.155-5.048c-7.356-3.732-13.239-9.936-17.37-17.037
			c-7.98-14.459-8.712-32.881-2.396-47.946c3.139-7.5,8.215-14.161,15.044-18.509c6.794-4.399,15.22-6.293,23.587-5.996
			c8.378,0.268,16.699,2.963,23.971,7.431c7.083,4.569,13.782,10.833,16.496,19.014l0.016,0.044c0.08,0.242,0.334,0.382,0.586,0.316
			c0.259-0.069,0.413-0.334,0.345-0.594c-2.328-8.795-8.85-15.682-15.987-20.959c-7.328-5.164-16.01-8.636-25.13-9.509
			c-4.724-0.464-9.587-0.298-14.334,0.628c-0.222-8.215,0.913-16.905,3.468-24.83c2.82-8.499,7.359-16.577,14.214-22.269
			c6.753-5.838,15.332-9.437,24.199-9.998c8.805-0.483,18.095,1.839,25.609,6.208l0.061,0.035c0.207,0.119,0.433,0.21,0.676,0.27
			c1.384,0.336,2.778-0.513,3.112-1.896l0.01-0.037c3.929-14.395,12.673-28.512,25.673-35.901
			C576.161,342.911,592.359,341.469,606.991,345.244z M393.907,394.003c1.131-4.612,2.719-9.053,4.789-13.25
			c2.287-4.053,4.892-7.956,8.283-11.15c6.554-6.639,15.266-11.083,24.596-13.118c9.286-2.126,19.36-2.262,28.828-0.62l0.225,0.04
			l0.096,0.013c0.979,0.112,1.863-0.589,1.975-1.569v-0.002c1.918-7.288,5.156-14.534,9.741-20.323
			c4.557-5.849,10.772-10.072,17.846-11.64c7.106-1.748,14.593-1.037,21.472,1.779c6.823,2.8,13.305,7.394,18.443,12.862v0.002
			c0.508,0.767,1.534,1.017,2.339,0.549l0.337-0.196c3.052-1.78,6.085-3.507,9.278-4.307c3.143-1.059,6.373-0.967,9.378-0.147
			c3.048,0.773,5.84,2.585,8.363,4.805c1.764,1.611,3.47,3.489,4.948,5.464c-1.535,0.715-3.044,1.495-4.521,2.35
			c-13.647,8.088-22.432,21.746-26.947,36.449c-8.012-4.043-16.765-5.916-25.719-5.534c-10.064,0.561-19.677,4.689-27.356,11.046
			c-7.906,6.239-13.237,15.187-16.558,24.423c-3.199,9.255-4.659,18.745-4.456,28.698c-1.976,0.733-3.909,1.618-5.776,2.669
			c-4.302,2.299-8.017,5.492-11.123,9.202c-0.317-2.809-0.96-5.584-1.933-8.266c-2.44-7.201-7.619-13.52-13.982-17.602
			c-6.461-4.063-13.669-6.19-20.882-7.094c-4.312-0.497-8.758-0.457-13.129,0.221C391.588,411.265,392.073,402.316,393.907,394.003z
			 M707.298,603.812c-10.239,7.836-27.852,5.852-33.942-5.774c-3.017-5.592-3.322-13.506,0.483-18.633
			c4.047-5.06,12.651-6.396,18.919-2.662c0.144,0.087,0.333,0.056,0.441-0.077c0.12-0.147,0.096-0.363-0.051-0.482
			c-5.876-4.759-15.752-5.307-21.965,0.798c-5.948,6.432-6.132,15.861-2.964,23.497c0.186,0.422,0.385,0.837,0.594,1.25
			c-1.027,3.143-2.63,5.997-4.972,8.103c-2.347,2.165-5.437,3.544-8.762,4.087c-3.369,0.511-6.883,0.271-10.185-0.739
			c-3.245-1.014-6.524-2.877-8.85-5.135l-0.005-0.005c-0.186-0.215-0.429-0.403-0.708-0.528c-1.035-0.468-2.252-0.008-2.719,1.027
			l-0.08,0.18c-2.623,5.806-6.787,11.309-11.616,15.571c-4.92,4.26-10.936,7.112-17.166,8.444
			c-12.615,2.66-26.367-2.432-34.69-12.356l-0.006-0.008c-0.796-0.928-2.182-1.129-3.217-0.423l-0.112,0.076
			c-8.471,5.782-19.173,9.119-29.616,10.14c-10.555,1.12-21.317-0.19-31.588-3.164c-10.306-2.789-19.949-7.625-27.61-14.906
			c-7.551-7.182-13.429-16.766-15.672-27.005v-0.005l-0.036-0.146c-0.265-0.944-1.246-1.494-2.191-1.229l-0.086,0.024
			c-7.858,2.21-16.498,2.662-24.386,0.991c-7.936-1.612-15.299-5.481-21.181-10.93c-5.916-5.301-9.422-12.666-10.316-20.616
			c-0.867-7.901,0.399-16.451,3.178-24.07l0.004-0.01c0.066-0.179,0.127-0.404,0.149-0.602c0.14-1.288-0.79-2.446-2.078-2.587
			c-12.882-1.548-26.127-6.362-35.244-15.283c-9.29-8.926-12.709-22.24-11.611-35.067c1.116-12.857,5.855-25.833,13.917-35.672
			c7.862-9.927,20.796-14.512,33.355-12.768c6.341,0.713,12.587,2.557,17.759,5.738c5.142,3.241,9.213,8.07,11.243,13.82
			c2.174,5.673,2.417,12.201,0.886,18.013c-1.647,5.817-5.329,11.032-10.363,14.339c-5.062,3.2-11.311,4.866-17.366,4.058
			c-6.002-0.638-11.866-3.965-14.653-9.036c-2.944-4.939-2.154-12.258,1.992-16.663c3.7-4.41,12.659-4.077,16.604,1.213
			c0.08,0.107,0.233,0.157,0.357,0.098c0.144-0.067,0.207-0.237,0.139-0.38c-1.54-3.296-5.064-5.316-8.625-5.958
			c-3.443-0.741-7.862-0.111-10.73,2.651c-5.7,5.144-7.597,13.999-4.27,21.278c3.472,7.261,10.858,11.556,18.285,12.767
			c7.495,1.342,15.429-0.277,21.903-4.398c1.091-0.698,2.126-1.47,3.113-2.295c-0.928,12.223,1.753,24.646,7.872,35.345
			c4.794,7.885,11.622,14.768,20.024,18.806c7.55,3.593,15.932,5.035,24.093,4.633c-1.162,5.834-1.191,11.772,0.411,17.646
			c1.803,6.765,6.755,12.927,13.173,15.892c6.33,3.028,13.399,3.995,20.21,3.103c6.128-0.718,12.184-3.143,16.978-7.281
			c6.029,6.348,13.436,11.267,22.124,13.659c9.296,2.636,19.761,1.254,28.178-3.604c8.76-4.771,14.479-13.995,16.408-23.243
			c1.763-7.998,1.69-16.079-0.065-23.953c4.086,0.967,8.288,1.068,12.573,0.187c5.603-1.315,10.808-4.621,14.151-9.512
			c3.257-4.933,4.516-10.67,4.428-16.123c0.004-4.383-0.848-8.64-2.203-12.679c5.777,1.562,11.699,2.315,17.604,2.857
			c0.319,7.741,2.46,15.201,6.584,21.888c4.531,7.147,11.678,12.766,19.763,15.297c6.354,2.012,13.117,3.002,19.839,2.18
			c5.974,1.933,11.236,6.097,15.332,11.076c4.471,5.389,7.762,11.812,9.501,18.569C721.642,580.519,718.649,596.184,707.298,603.812
			z M881.276,504.334c-4.812,8.988-14.14,14.663-24.436,15.856c-10.325,1.374-21.019-0.852-28.147-8.293
			c-3.539-3.587-6.195-8.093-7.423-12.92c-1.045-4.805-0.784-9.991,1.759-14.08c4.742-8.569,17.042-12.015,26.036-7.32
			c4.497,2.059,7.69,6.732,7.217,11.6c-0.283,2.34-1.557,4.591-3.67,5.796c-2.112,1.183-4.836,1.036-7.072-0.334
			c-0.303-0.185-0.704-0.117-0.927,0.169c-0.239,0.309-0.182,0.752,0.126,0.991c2.365,1.845,5.86,2.527,8.859,1.219
			c2.965-1.293,5.11-4.16,5.74-7.341c1.173-6.456-2.778-12.864-8.208-15.851c-10.71-6.245-26.179-3.037-32.936,8.158
			c-3.524,5.455-4.005,12.295-2.792,18.326c1.39,6.066,4.505,11.583,8.714,16.044c4.047,4.335,9.269,7.491,14.954,9.329
			c-0.108,3.545-1.135,7.27-2.82,10.424c-1.898,3.886-5.081,6.953-8.788,8.958c-7.487,4.026-17.44,1.516-25.294-3.27l-0.004-0.005
			c-0.215-0.203-0.492-0.346-0.807-0.396c-0.826-0.131-1.604,0.434-1.735,1.261l-0.052,0.329c-1.432,9.042-4.4,18.116-9.344,25.445
			c-2.431,3.692-5.452,6.9-8.965,9.348c-3.528,2.315-7.697,4.146-11.853,5.361c-8.456,2.203-17.563,1.394-25.765-2.057
			c-7.566-3.238-14.665-8.286-19.782-14.902c-0.054-0.204-0.105-0.41-0.162-0.614c-2.134-7.59-5.92-14.644-11.075-20.577
			c-3.256-3.683-7.129-6.997-11.545-9.392c6.447-2.31,12.119-6.581,15.89-12.499c12.95,5.11,27.544,1.27,38.374-6.029
			c11.588-7.742,20.288-20.217,22.398-34.284c2.21-14.164-2.52-28.39-10.818-39.552c-4.035-5.309-9.115-9.706-14.838-12.984
			c2.169-3.461,5.107-6.65,8.498-8.601c3.953-2.435,8.654-3.074,13.297-2.149c9.39,1.55,16.891,9.57,21.311,18.396l0.02,0.054
			c0.08,0.202,0.203,0.399,0.367,0.563c0.634,0.633,1.661,0.631,2.292-0.002l0.093-0.091c5.016-5.027,12.468-6.083,19.029-3.988
			c3.295,1.049,6.277,2.635,8.668,5.062c2.386,2.335,4.382,5.418,5.543,8.587l0.016,0.059l0.034,0.11l0.008,0.027
			c0.334,1.045,1.456,1.621,2.501,1.286c20.264-6.501,45.025,5.06,50.988,24.858C887.69,484.034,885.68,495.261,881.276,504.334z"/>
		<g>
			<linearGradient id="SVGID_2_" gradientUnits="userSpaceOnUse" x1="293.1163" y1="627.9201" x2="571.6379" y2="124.0485">
				<stop  offset="0.0261" style="stop-color:#f12550"/>
				<stop  offset="0.3787" style="stop-color:#b72013"/>
				<stop  offset="0.7437" style="stop-color:#f12770"/>
				<stop  offset="1" style="stop-color:#b72233"/>
			</linearGradient>
			<path style="fill:url(#SVGID_2_);" d="M457.07,364.952c-12.87-0.33-25.279,3.459-34.96,11.027
				c-9.701,7.543-16.408,18.64-19.249,31.197c-0.435-12.993,6.185-26.206,16.726-34.436
				C430.154,364.54,444.578,361.36,457.07,364.952z"/>
			<linearGradient id="SVGID_3_" gradientUnits="userSpaceOnUse" x1="418.8686" y1="697.4293" x2="697.3903" y2="193.5575">
				<stop  offset="0.0261" style="stop-color:#f12550"/>
				<stop  offset="0.3787" style="stop-color:#b72013"/>
				<stop  offset="0.7437" style="stop-color:#f12770"/>
				<stop  offset="1" style="stop-color:#b72233"/>
			</linearGradient>
			<path style="fill:url(#SVGID_3_);" d="M549.829,385.795c5.817-16.938,22.919-29.687,41.374-30.986
				c18.453-1.302,37.178,8.937,45.295,24.904c-10.844-14.002-28.084-21.97-45.009-20.808
				C574.566,360.108,558.6,370.41,549.829,385.795z"/>
			<linearGradient id="SVGID_4_" gradientUnits="userSpaceOnUse" x1="460.0135" y1="720.1771" x2="738.5369" y2="216.3025">
				<stop  offset="0.0261" style="stop-color:#f12550"/>
				<stop  offset="0.3787" style="stop-color:#b72013"/>
				<stop  offset="0.7437" style="stop-color:#f12770"/>
				<stop  offset="1" style="stop-color:#b72233"/>
			</linearGradient>
			<path style="fill:url(#SVGID_4_);" d="M587.882,434.458c-3.782,12.227-3.616,25.095,0.827,36.483
				c4.409,11.4,12.962,21.006,23.996,27.493c-12.44-3.498-23.003-13.629-27.824-26.008
				C580.102,460.031,581.068,445.435,587.882,434.458z"/>
			<linearGradient id="SVGID_5_" gradientUnits="userSpaceOnUse" x1="374.5339" y1="672.9239" x2="653.053" y2="169.0568">
				<stop  offset="0.0261" style="stop-color:#f12550"/>
				<stop  offset="0.3787" style="stop-color:#b72013"/>
				<stop  offset="0.7437" style="stop-color:#f12770"/>
				<stop  offset="1" style="stop-color:#b72233"/>
			</linearGradient>
			<path style="fill:url(#SVGID_5_);" d="M463.2,459.437c-12.202,10.961-16.491,28.831-10.78,43.188
				c5.809,14.315,21.252,24.253,37.648,23.748c-16.227,3.92-34.961-6.001-41.458-22.219
				C442.102,487.94,448.775,467.833,463.2,459.437z"/>
			<linearGradient id="SVGID_6_" gradientUnits="userSpaceOnUse" x1="576.759" y1="784.7083" x2="855.2812" y2="280.8356">
				<stop  offset="0.0261" style="stop-color:#f12550"/>
				<stop  offset="0.3787" style="stop-color:#b72013"/>
				<stop  offset="0.7437" style="stop-color:#f12770"/>
				<stop  offset="1" style="stop-color:#b72233"/>
			</linearGradient>
			<path style="fill:url(#SVGID_6_);" d="M754.297,452.498c9.281,11.823,9.125,30.448-0.412,42.925
				c-9.524,12.488-27.464,17.535-41.309,11.675c14.568,2.548,29.559-3.129,38.047-14.167
				C759.052,481.848,760.592,465.879,754.297,452.498z"/>
			<linearGradient id="SVGID_7_" gradientUnits="userSpaceOnUse" x1="459.5708" y1="719.9327" x2="738.0955" y2="216.0557">
				<stop  offset="0.0261" style="stop-color:#f12550"/>
				<stop  offset="0.3787" style="stop-color:#b72013"/>
				<stop  offset="0.7437" style="stop-color:#f12770"/>
				<stop  offset="1" style="stop-color:#b72233"/>
			</linearGradient>
			<path style="fill:url(#SVGID_7_);" d="M481.271,600.653c11.922,9.39,25.834,15.592,40.461,17.126
				c14.614,1.62,29.53-1.493,43.113-8.272c-11.882,9.584-28.047,14.011-43.553,12.353
				C505.787,620.148,490.974,612.424,481.271,600.653z"/>
			<linearGradient id="SVGID_8_" gradientUnits="userSpaceOnUse" x1="562.7502" y1="776.9627" x2="841.27" y2="273.0945">
				<stop  offset="0.0261" style="stop-color:#f12550"/>
				<stop  offset="0.3787" style="stop-color:#b72013"/>
				<stop  offset="0.7437" style="stop-color:#f12770"/>
				<stop  offset="1" style="stop-color:#b72233"/>
			</linearGradient>
			<path style="fill:url(#SVGID_8_);" d="M660.669,600.254c-5.509-4.079-8.483-11.303-8.256-18.418
				c0.064-7.249,4.032-14.193,9.637-18.648c5.614-4.494,13.059-6.763,20.117-5.906c7.036,0.737,13.659,3.949,18.274,8.926
				c-5.669-3.625-12.092-5.721-18.456-5.771c-6.347-0.044-12.534,2.021-17.372,5.959c-4.898,3.832-8.288,9.444-9.062,15.673
				C654.778,588.284,656.43,595.001,660.669,600.254z"/>
			<linearGradient id="SVGID_9_" gradientUnits="userSpaceOnUse" x1="530.797" y1="759.3077" x2="809.3229" y2="255.4283">
				<stop  offset="0.0261" style="stop-color:#f12550"/>
				<stop  offset="0.3787" style="stop-color:#b72013"/>
				<stop  offset="0.7437" style="stop-color:#f12770"/>
				<stop  offset="1" style="stop-color:#b72233"/>
			</linearGradient>
			<path style="fill:url(#SVGID_9_);" d="M769.041,400.588c-1.894-13.497-8.867-25.629-19.351-33.273
				c-10.483-7.646-24.155-10.585-37.59-8.285c12.626-5.529,28.508-3.421,40.009,4.969
				C763.601,372.403,770.445,386.877,769.041,400.588z"/>
			<linearGradient id="SVGID_10_" gradientUnits="userSpaceOnUse" x1="639.5657" y1="819.4291" x2="918.0904" y2="315.552">
				<stop  offset="0.0261" style="stop-color:#f12550"/>
				<stop  offset="0.3787" style="stop-color:#b72013"/>
				<stop  offset="0.7437" style="stop-color:#f12770"/>
				<stop  offset="1" style="stop-color:#b72233"/>
			</linearGradient>
			<path style="fill:url(#SVGID_10_);" d="M821.644,467.766c-10.3,7.258-16.629,18.788-16.84,30.612
				c-0.175,11.824,5.758,23.551,15.801,31.161c-11.87-4.789-20.139-17.879-19.906-31.229
				C800.925,484.959,809.624,472.164,821.644,467.766z"/>
			<linearGradient id="SVGID_11_" gradientUnits="userSpaceOnUse" x1="305.9084" y1="634.9935" x2="584.4334" y2="131.1158">
				<stop  offset="0.0261" style="stop-color:#f12550"/>
				<stop  offset="0.3787" style="stop-color:#b72013"/>
				<stop  offset="0.7437" style="stop-color:#f12770"/>
				<stop  offset="1" style="stop-color:#b72233"/>
			</linearGradient>
			<path style="fill:url(#SVGID_11_);" d="M374.873,452.953c-7.258,12.379-8.263,27.497-2.669,39.883
				c5.63,12.369,17.648,21.579,31.738,24.298c-14.536,0.611-29.248-8.831-35.477-22.605
				C362.231,480.759,364.835,463.484,374.873,452.953z"/>
		</g>
	</g>
	<g>
		<path style="fill:#4b4d64;" d="M1016.02,213.247c-12.947-17.246-36.63-24.477-56.561-17.952
			c2.206-5.294,3.152-11.109,2.421-17.108c-0.823-7.18-5.263-13.941-11.117-18.057c-5.719-4.312-13.295-6.387-20.42-5.6
			c-6.161,0.727-11.745,3.094-16.482,6.697c-1.302-6.347-4.424-11.908-8.068-16.998c-4.311-5.828-9.749-10.834-15.954-14.767
			c-12.499-7.901-28.547-9.663-42.657-5.967c-7.055,1.767-13.984,4.631-20.089,8.966c-6.011,4.415-11.185,10.149-14.534,16.843
			c-5.711,11.745-6.621,24.7-4.443,36.977c-2.297-1.607-4.837-2.93-7.579-3.847c-4.586-1.636-9.711-1.853-14.618-0.754
			c-4.994,1.136-9.457,4.243-12.583,7.986c-2.419,2.989-4.21,6.195-5.398,9.728c-5.713-1.44-11.703-1.691-17.338-0.956
			c-12.041,1.485-22.533,7.071-31.905,13.118c-9.459,6.079-18.137,12.806-27.196,18.733c-9.025,5.908-18.519,11.146-28.831,13.33
			c-10.32,2.107-21.377,2.424-31.681-0.269c-10.241-2.573-20.161-8.222-26.606-16.591l-0.058-0.075
			c-0.345-0.449-0.976-0.589-1.484-0.305c-0.56,0.313-0.759,1.019-0.446,1.577l0.149,0.267c4.606,8.575,10.142,16.917,17.591,23.631
			c7.393,6.731,16.676,11.606,26.487,13.777c9.815,2.27,19.717,2.843,29.63,2.195c9.896-0.562,19.485-2.539,28.933-3.927
			c9.399-1.423,18.994-2.193,27.628,0.682c4.345,1.322,8.148,3.755,11.727,6.829c3.626,2.955,7.076,6.309,10.565,9.635
			c13.773,13.305,28.829,27.384,48.61,33.457c9.745,3.044,20.311,3.676,30.383,2.23c6.818-0.966,13.649-2.745,20.106-5.548
			c2.537,8.276,7.427,15.648,14.208,21.278c8.194,6.546,18.616,9.745,28.758,9.938c10.131,0.304,20.762-2.127,29.142-8.173
			c7.734-5.394,13.562-12.851,17.158-21.364c3.23,3.05,7.258,5.053,11.713,6.025c5.294,1.077,10.844,0.387,15.873-1.589
			c5.4-2.52,9.17-6.658,11.707-11.398c2.023-3.828,3.133-8.1,3.233-12.342c0.011-0.002,0.024-0.002,0.035-0.005
			c11.29-1.661,22.204-7.491,29.354-16.719C1029.592,258.396,1029.527,231.505,1016.02,213.247z"/>
		<linearGradient id="SVGID_12_" gradientUnits="userSpaceOnUse" x1="714.5419" y1="346.3783" x2="932.1869" y2="128.7333">
			<stop  offset="0.0261" style="stop-color:#f12550"/>
			<stop  offset="0.3787" style="stop-color:#b72013"/>
			<stop  offset="0.7437" style="stop-color:#f12770"/>
			<stop  offset="1" style="stop-color:#b72233"/>
		</linearGradient>
		<path style="fill:url(#SVGID_12_);" d="M1016.02,213.247c-12.947-17.246-36.63-24.477-56.561-17.952
			c2.206-5.294,3.152-11.109,2.421-17.108c-0.823-7.18-5.263-13.941-11.117-18.057c-5.719-4.312-13.295-6.387-20.42-5.6
			c-6.161,0.727-11.745,3.094-16.482,6.697c-1.302-6.347-4.424-11.908-8.068-16.998c-4.311-5.828-9.749-10.834-15.954-14.767
			c-12.499-7.901-28.547-9.663-42.657-5.967c-7.055,1.767-13.984,4.631-20.089,8.966c-6.011,4.415-11.185,10.149-14.534,16.843
			c-5.711,11.745-6.621,24.7-4.443,36.977c-2.297-1.607-4.837-2.93-7.579-3.847c-4.586-1.636-9.711-1.853-14.618-0.754
			c-4.994,1.136-9.457,4.243-12.583,7.986c-2.419,2.989-4.21,6.195-5.398,9.728c-5.713-1.44-11.703-1.691-17.338-0.956
			c-12.041,1.485-22.533,7.071-31.905,13.118c-9.459,6.079-18.137,12.806-27.196,18.733c-9.025,5.908-18.519,11.146-28.831,13.33
			c-10.32,2.107-21.377,2.424-31.681-0.269c-10.241-2.573-20.161-8.222-26.606-16.591l-0.058-0.075
			c-0.345-0.449-0.976-0.589-1.484-0.305c-0.56,0.313-0.759,1.019-0.446,1.577l0.149,0.267c4.606,8.575,10.142,16.917,17.591,23.631
			c7.393,6.731,16.676,11.606,26.487,13.777c9.815,2.27,19.717,2.843,29.63,2.195c9.896-0.562,19.485-2.539,28.933-3.927
			c9.399-1.423,18.994-2.193,27.628,0.682c4.345,1.322,8.148,3.755,11.727,6.829c3.626,2.955,7.076,6.309,10.565,9.635
			c13.773,13.305,28.829,27.384,48.61,33.457c9.745,3.044,20.311,3.676,30.383,2.23c6.818-0.966,13.649-2.745,20.106-5.548
			c2.537,8.276,7.427,15.648,14.208,21.278c8.194,6.546,18.616,9.745,28.758,9.938c10.131,0.304,20.762-2.127,29.142-8.173
			c7.734-5.394,13.562-12.851,17.158-21.364c3.23,3.05,7.258,5.053,11.713,6.025c5.294,1.077,10.844,0.387,15.873-1.589
			c5.4-2.52,9.17-6.658,11.707-11.398c2.023-3.828,3.133-8.1,3.233-12.342c0.011-0.002,0.024-0.002,0.035-0.005
			c11.29-1.661,22.204-7.491,29.354-16.719C1029.592,258.396,1029.527,231.505,1016.02,213.247z M1009.563,272.166
			c-6.104,7.455-15.09,12.527-24.729,14.247c-9.429,1.894-19.768-0.598-24.168-9.003c-4.413-7.847-2.722-20.328,6.095-24.333
			c4.313-1.941,9.759-2.159,13.754,0.636c4.444,2.541,5.272,8.257,3.323,13.065c-0.104,0.26,0.002,0.579,0.257,0.705
			c0.269,0.133,0.593,0.022,0.725-0.246c1.226-2.493,1.838-5.272,1.545-8.148c-0.261-2.959-2.173-5.592-4.383-7.339
			c-4.624-3.775-11.189-4.073-16.623-2.114c-5.711,1.997-9.892,7.306-11.424,12.981c-1.567,5.711-1.091,11.944,1.467,17.444
			c2.541,5.522,7.441,9.952,13.138,12.148c3.69,1.402,7.545,1.915,11.332,1.87c-0.697,2.972-1.775,5.79-3.331,8.334
			c-2.137,3.474-5.093,6.748-8.411,8.181c-3.703,1.782-7.925,2.515-12.043,2.234c-4.11-0.256-8.437-1.81-12.041-4.091l-0.219-0.14
			l-0.183-0.098c-0.858-0.402-1.88-0.032-2.282,0.826l-0.006,0.011c-4.062,8.193-10.536,15.445-18.152,20.169
			c-7.674,4.783-16.726,6.822-25.782,6.247c-4.534-0.123-8.997-0.985-13.28-2.222c-4.217-1.459-8.154-3.528-11.732-6.145
			c-6.001-4.604-10.834-11.209-13.666-18.389c1.422-0.752,2.824-1.551,4.191-2.417c8.889-5.458,16.227-13.525,20.893-22.852
			c4.628-9.296,7.479-19.595,6.364-30.419c-1.089-10.625-6.957-21.179-16.434-26.796c-9.44-5.636-21.229-6.208-31.013-1.162
			c-10.068,5.191-14.257,18.253-9.858,28.107c3.488,10.649,20.127,14.138,25.742,3.942c0.225-0.408,0.09-0.925-0.313-1.168
			c-0.414-0.249-0.95-0.116-1.199,0.296l-0.022,0.036c-2.326,3.861-7.395,4.965-11.579,3.848c-4.347-1.033-7.541-4.299-8.843-8.456
			c-2.971-8.195,1.031-18.144,8.767-21.44c7.576-3.359,17.62-2.624,24.497,2.104c7.109,4.653,11.353,12.899,11.898,21.501
			c0.629,8.519-1.764,17.688-5.896,25.516c-4.122,7.936-10.375,14.531-17.815,19.432c-7.463,4.914-16.234,7.912-25.327,9.361
			c-9.014,1.509-18.19,1.356-27.025-1.067c-17.877-4.72-32.766-17.412-46.931-30.344c-7.206-6.249-14.441-13.668-24.506-17.012
			c-9.895-3.199-20.203-2.527-29.842-1.42c-9.726,1.115-19.188,2.775-28.618,3.391c-9.353,0.485-19.012,0.445-28.088-1.51
			c-9.124-1.853-17.672-5.863-24.918-11.79c-3.61-3.023-6.934-6.424-9.993-10.094c5.136,3.769,10.992,6.558,17.087,8.416
			c10.918,3.351,22.457,3.558,33.718,1.794c11.421-1.897,21.802-7.08,31.394-12.747c9.659-5.654,18.66-12.103,27.883-17.669
			c9.221-5.439,18.655-10.641,28.655-11.73c9.959-1.483,20.634,0.381,27.883,6.868c6.995,6.355,11.159,17.36,6.337,25.957
			c-2.165,4.258-6.39,7.33-11.209,8.374c-4.88,1.096-10.175-0.414-14.42-3.514c-0.355-0.259-0.874-0.245-1.197,0.076
			c-0.355,0.354-0.355,0.928,0,1.283c4.04,4.054,10.056,6.583,16.147,5.901c6.037-0.512,12.009-4.027,15.211-9.445
			c3.419-5.202,4.353-12.025,3.001-18.022c-1.194-6.088-4.556-11.581-8.948-15.9c-3.304-3.14-7.135-5.485-11.227-7.133
			c1.402-2.595,3.088-5.124,5.042-7.149c2.588-2.913,5.75-4.871,9.307-5.857c7.338-2.073,15.513,0.265,22.431,4.88l0.032,0.021
			c0.401,0.264,0.906,0.395,1.42,0.322c1.117-0.158,1.896-1.193,1.737-2.311c-1.805-13.1-0.799-27.294,5.448-38.561
			c3.08-5.633,7.423-10.412,12.628-14.117c5.273-3.663,11.422-5.985,17.736-7.797c12.652-3.613,26.229-1.979,37.712,4.272
			c5.705,3.206,10.79,7.561,15.095,12.596c4.299,4.964,8.011,10.916,9.2,17.116l0.005,0.027c0.036,0.15,0.094,0.307,0.169,0.45
			c0.483,0.897,1.599,1.235,2.496,0.754l0.054-0.027c5.304-2.842,11.34-4.916,17.104-5.003c5.792-0.288,11.368,1.484,16.041,4.89
			c4.922,3.117,8.025,7.981,9.439,13.588c1.268,5.637,0.775,12.01-0.788,17.944l-0.02,0.069l-0.032,0.118
			c-0.076,0.27-0.072,0.564,0.026,0.848c0.257,0.748,1.072,1.147,1.823,0.89c19.513-6.694,42.724,1.068,54.179,17.485
			C1022.971,232.947,1021.548,256.989,1009.563,272.166z"/>
		<g>
			<linearGradient id="SVGID_13_" gradientUnits="userSpaceOnUse" x1="731.3101" y1="339.8482" x2="1043.8325" y2="115.7756">
				<stop  offset="0.0261" style="stop-color:#f12550"/>
				<stop  offset="0.3787" style="stop-color:#b72013"/>
				<stop  offset="0.7437" style="stop-color:#f12770"/>
				<stop  offset="1" style="stop-color:#b72233"/>
			</linearGradient>
			<path style="fill:url(#SVGID_13_);" d="M869.968,268.067c-1.856,10.229-8.503,19.439-17.255,25.419
				c-8.746,6.276-19.876,8.35-30.377,7.992c-10.63-0.609-20.921-4.017-30.007-9.18c-9.093-5.216-17.09-12.021-23.91-19.752
				c7.987,6.504,16.305,12.52,25.383,16.982c9.047,4.407,18.76,7.618,28.734,7.881c9.933,0.624,20.015-1.266,28.483-6.546
				C859.532,285.766,866.481,277.78,869.968,268.067z"/>
			<linearGradient id="SVGID_14_" gradientUnits="userSpaceOnUse" x1="766.5375" y1="388.9829" x2="1079.0619" y2="164.9089">
				<stop  offset="0.0261" style="stop-color:#f12550"/>
				<stop  offset="0.3787" style="stop-color:#b72013"/>
				<stop  offset="0.7437" style="stop-color:#f12770"/>
				<stop  offset="1" style="stop-color:#b72233"/>
			</linearGradient>
			<path style="fill:url(#SVGID_14_);" d="M954.935,209.537c13.686-7.28,32.259-4.679,44.207,6.121
				c11.954,10.791,16.417,29.018,10.54,43.365c2.608-15.067-2.531-30.591-13.273-40.341
				C985.631,208.968,969.659,205.414,954.935,209.537z"/>
			<linearGradient id="SVGID_15_" gradientUnits="userSpaceOnUse" x1="694.2393" y1="288.1425" x2="1006.7606" y2="64.0708">
				<stop  offset="0.0261" style="stop-color:#f12550"/>
				<stop  offset="0.3787" style="stop-color:#b72013"/>
				<stop  offset="0.7437" style="stop-color:#f12770"/>
				<stop  offset="1" style="stop-color:#b72233"/>
			</linearGradient>
			<path style="fill:url(#SVGID_15_);" d="M904.574,174.775c-2.059-8.13-6.513-15.329-12.215-21.032
				c-5.773-5.647-12.963-9.726-20.783-11.14c-7.744-1.519-15.976-0.395-23.463,2.5c-7.51,2.881-14.312,7.904-19.089,14.821
				c3.203-7.869,9.995-14.087,17.772-17.837c7.808-3.707,16.871-5.227,25.555-3.436
				C889.838,141.978,903.318,158.008,904.574,174.775z"/>
			<linearGradient id="SVGID_16_" gradientUnits="userSpaceOnUse" x1="776.825" y1="403.3279" x2="1089.3463" y2="179.256">
				<stop  offset="0.0261" style="stop-color:#f12550"/>
				<stop  offset="0.3787" style="stop-color:#b72013"/>
				<stop  offset="0.7437" style="stop-color:#f12770"/>
				<stop  offset="1" style="stop-color:#b72233"/>
			</linearGradient>
			<path style="fill:url(#SVGID_16_);" d="M873.472,316.651c10.647,5.65,22.832,7.021,33.698,3.616
				c10.867-3.404,20.091-11.47,25.631-22.176c-2.48,11.954-12.342,22.286-24.415,26.065
				C896.312,327.921,882.328,325.052,873.472,316.651z"/>
			<linearGradient id="SVGID_17_" gradientUnits="userSpaceOnUse" x1="683.6443" y1="273.3665" x2="996.1664" y2="49.2942">
				<stop  offset="0.0261" style="stop-color:#f12550"/>
				<stop  offset="0.3787" style="stop-color:#b72013"/>
				<stop  offset="0.7437" style="stop-color:#f12770"/>
				<stop  offset="1" style="stop-color:#b72233"/>
			</linearGradient>
			<path style="fill:url(#SVGID_17_);" d="M713.193,235.534c8.685-8.059,18.468-15.506,30.317-19.165
				c5.925-1.719,12.266-2.313,18.364-1.121c6.063,1.117,11.93,3.993,15.804,8.627c-10.033-6.681-22.22-6.801-33.004-3.6
				C733.68,223.476,723.77,230.002,713.193,235.534z"/>
			<linearGradient id="SVGID_18_" gradientUnits="userSpaceOnUse" x1="730.2365" y1="338.352" x2="1042.7601" y2="114.2785">
				<stop  offset="0.0261" style="stop-color:#f12550"/>
				<stop  offset="0.3787" style="stop-color:#b72013"/>
				<stop  offset="0.7437" style="stop-color:#f12770"/>
				<stop  offset="1" style="stop-color:#b72233"/>
			</linearGradient>
			<path style="fill:url(#SVGID_18_);" d="M847.632,211.351c13.163-5.762,29.808-3.271,41.473,5.928
				c11.66,9.206,17.947,24.827,15.383,38.968c-0.749-14.186-7.298-27.379-17.909-35.77
				C875.962,212.093,861.602,208.779,847.632,211.351z"/>
		</g>
	</g>
</g>
</svg>
